<?xml version="1.0" standalone="no"?>
<!DOCTYPE svg PUBLIC "-//W3C//DTD SVG 20010904//EN"
 "http://www.w3.org/TR/2001/REC-SVG-20010904/DTD/svg10.dtd">
<svg version="1.0" xmlns="http://www.w3.org/2000/svg"
 width="260.000000pt" height="260.000000pt" viewBox="0 0 260.000000 260.000000"
 preserveAspectRatio="xMidYMid meet">
<metadata>
Created by potrace 1.11, written by Peter Selinger 2001-2013
</metadata>
<g transform="translate(0.000000,260.000000) scale(0.100000,-0.100000)"
fill="#000000" stroke="none">
<path d="M1186 2127 c-26 -96 -125 -375 -211 -597 -153 -395 -331 -841 -364
-911 -67 -142 -136 -198 -263 -214 -30 -4 -60 -10 -67 -14 -15 -10 -24 -56
-16 -90 l5 -26 385 0 c211 0 386 3 388 5 8 9 14 100 7 105 -7 4 -37 10 -105
20 -74 11 -115 26 -136 48 -32 34 -21 94 57 311 57 156 73 190 92 197 26 10
524 12 559 3 17 -5 32 -30 64 -113 67 -172 129 -351 129 -371 0 -43 -40 -61
-183 -85 l-38 -6 3 -57 3 -57 417 0 c409 0 417 0 422 20 3 11 6 36 6 56 l0 36
-87 17 c-174 34 -194 61 -348 442 -42 104 -83 203 -91 221 -8 17 -14 35 -14
41 0 5 -10 31 -21 58 -72 162 -325 849 -354 960 -4 16 -235 16 -239 1z m91
-438 c18 -46 70 -184 115 -307 67 -184 79 -225 67 -232 -8 -5 -110 -9 -227 -9
-172 1 -214 3 -219 15 -9 24 205 626 221 621 5 -2 25 -41 43 -88z"/>
</g>
</svg>
