<?xml version="1.0" encoding="UTF-8" standalone="no"?><!DOCTYPE svg PUBLIC "-//W3C//DTD SVG 1.1//EN" "http://www.w3.org/Graphics/SVG/1.1/DTD/svg11.dtd"><svg width="100%" height="100%" viewBox="0 0 3100 2038" version="1.1" xmlns="http://www.w3.org/2000/svg" xmlns:xlink="http://www.w3.org/1999/xlink" xml:space="preserve" xmlns:serif="http://www.serif.com/" style="fill-rule:evenodd;clip-rule:evenodd;stroke-miterlimit:1.4142;"><path d="M2874.6,987.296l-38.1,-6.867l-57.4,62.442l-71.437,-25.688l-83.104,-5.216l-46.55,-54.838l9.862,-23.104l-5.667,-19.679l-55.854,-20.588l-24.279,4.213l-35.488,63.4l41.905,57.387l27.104,3.442l37.921,37.783l10.3,29.967l-0.796,51.308l24.096,33.475l63.391,29.988l88.488,-0.758l50.008,52.287l48.646,-21.492l30.587,12.921l6.33,20.559l-51.6,36.787l-5.342,23.9l23.608,46.383l4.442,57.367l63.637,-12.883l20.18,11.162l-2.38,24.058l-54.02,82.125l-3.705,49.717l14.417,53.15l52.242,51.727" style="fill:none;stroke:#000;stroke-width:1.77px;"/><path d="M2956.05,1691.73l15.396,-20.949l9.895,-56.486l23.68,-4.296l23.075,20.567l56.191,-13.688l66.967,1.375" style="fill:none;stroke:#000;stroke-width:1.77px;"/><path d="M2956.05,1691.73l45.491,126.38l-27.612,171.37l-26.696,51.141" style="fill:none;stroke:#000;stroke-width:1.77px;"/><path d="M3183.79,673.8l28.45,42.079l7.408,47.009l39.742,34.35l2.212,47.087l25.296,45.421l-9.867,22.308l-36.391,22.221l-14.459,32.583l-32.333,5.088l-80.071,-58.346l-69.804,-12.767l-0.913,-0.004" style="fill:none;stroke:#000;stroke-width:1.77px;"/><path d="M2619.33,590.883l32.292,-43.166l-25.534,-80.484l41.096,-50.495l9.496,-73.776l-16.675,-26.458l-41.992,-6.075l38.305,-52.25l51.891,-21.329l-14.312,-27.412l7.529,-7.805l92.917,-69.279l-29.655,-65.983l-89.908,-87.763l21.846,-87.55l-68.729,-54.371" style="fill:none;stroke:#000;stroke-width:1.77px;"/><path d="M3043.06,900.829l-24.541,2.542l-36.984,37.675l-19.287,59.987l-34.704,41.021l-14.442,-0.883l-38.496,-53.875" style="fill:none;stroke:#000;stroke-width:1.77px;"/><path d="M2619.33,590.883l-27.333,36.48l-37.271,102.758l55.775,19.787l73.658,61.705l46.892,-11.134l86.787,77.958l21.096,48.93l34.567,36.745l1.108,23.184" style="fill:none;stroke:#000;stroke-width:1.77px;"/><path d="M3183.79,673.8l-37.434,17.358l-86.171,5.555l-41.204,-0.017l-15.046,27.883l-11.391,44.454l-0.113,38.88l11.179,33.466l33.571,50.05l5.879,9.4" style="fill:none;stroke:#000;stroke-width:1.77px;"/><path d="M2627.89,-163.313l-154.542,95.05l-68.508,-2.587l-29.559,47.95l-63.258,-16.292l-14.442,19.75l1.059,24.779l-26.663,31.775l-108.992,34.988l0.963,30.758l23.617,11.167l30.266,51.492l49.292,41.937l0.417,23.983l-15.313,8.517l-43.5,9.534l-1.517,55.612l-22.829,20.542" style="fill:none;stroke:#000;stroke-width:1.77px;"/><path d="M2184.38,325.642l-47.329,42.516l-23.45,4.446l-80.337,-164.425l-19.521,-5.992l-84.95,33.405l-67.263,-5.309l-27.858,34.238l-124.721,29.941l-46.212,27.292l-47.738,53.183l69.454,26.351" style="fill:none;stroke:#000;stroke-width:1.77px;"/><path d="M-894.846,383.338l20.575,-3.151l45.729,69.555l22.792,58.204l115.962,33.658l36.413,-4.242l55.292,-82.137l69.037,9.512l30.95,-22.1l-33.492,-38.295l12.955,-81.73l12.375,-20.537l103.435,-4.933l-60.302,110.495l27.177,34.142l50.607,-38.483l70.864,0.108l84.458,24.192l125.367,-80.446l59.53,-12.663l48.815,10.267l30.168,-13.662l52.352,10.429l72.419,62.566l24.238,-0.762l14.156,-35.038l-4.642,-46.379l-42.609,-58.221l-31.925,-15.5l1.812,-13.704l42.353,-31.65l60.346,12.909l74.698,-92.405l42.805,-21.3" style="fill:none;stroke:#000;stroke-width:1.77px;"/><path d="M554.421,477.979l1.283,-16.012l37.246,-36.767l46.263,-78.662l-18.321,-12.055l-74.98,10.984l-35.566,-12.871l-65.758,-105.492l-18.455,-60.737l-43.625,-13.759l-42.644,-50.57" style="fill:none;stroke:#000;stroke-width:1.77px;"/><path d="M169.667,-754.862l2.628,23.266l-20.555,41.884l-50.631,54.745l6.129,20.567l46.05,45.479l7.563,41.121l-42.937,34.204l-31.279,76.125l-77.4,24.75l-0.747,23.104l35.119,86.58l0.531,61.67l-43.722,47.105l-20.161,59.091l-25.188,35.021l30.281,15.5l32.185,50.563l47.422,29.866l12.571,-32.333l20.368,-16.384l70.858,41.367l25.006,-19.725l33.015,26.659l52.863,13.774l11.684,39.375l37.29,13.75l11.254,19.776" style="fill:none;stroke:#000;stroke-width:1.77px;"/><path d="M633.092,1348.24l-17.16,9.877l1.82,3.163l6.804,-3.916l10.226,17.767l3.597,-2.07l-10.226,-17.767l6.76,-3.891l-1.821,-3.163Z" style="fill-rule:nonzero;"/><path d="M656.356,1336.93l-3.748,1.781l4.355,9.168l-10.659,5.063l-4.355,-9.168l-3.748,1.78l10.362,21.814l3.748,-1.78l-4.376,-9.214l10.658,-5.063l4.377,9.214l3.749,-1.781l-10.363,-21.814Z" style="fill-rule:nonzero;"/><path d="M682.922,1345.99l4.647,4.657l4.022,-1.52l-18.415,-19.017l-2.712,1.025l-0.808,26.284l4.022,-1.52l0.264,-6.515l8.98,-3.394Zm-8.832,-0.457l0.011,-8.877l6.069,6.579l-6.08,2.298Z" style="fill-rule:nonzero;"/><path d="M691.303,1323.97l-3.271,0.925l6.573,23.238l3.993,-1.129l-4.491,-15.877l9.515,6.817l0.866,-0.245l4.534,-10.791l4.491,15.877l3.993,-1.13l-6.573,-23.238l-3.272,0.926l-5.253,12.657l-11.105,-8.03Z" style="fill-rule:nonzero;"/><path d="M723.257,1319.75l9.361,-1.893l-0.763,-3.773l-13.428,2.715l4.786,23.671l13.722,-2.775l-0.763,-3.774l-9.655,1.953l-1.268,-6.274l9.067,-1.833l-0.753,-3.724l-9.067,1.833l-1.239,-6.126Z" style="fill-rule:nonzero;"/><path d="M749.229,1312.62c-2.688,-1.062 -4.779,-0.849 -5.768,-0.7c-4.598,0.691 -6.617,4.079 -6.089,7.59c0.55,3.658 2.934,4.716 8.062,6.877c1.036,0.502 3.01,1.52 3.277,3.3c0.231,1.532 -1.096,2.794 -2.679,3.032c-3.164,0.476 -5.276,-1.128 -6.982,-2.389l0.758,5.044c2.129,1.045 4.515,1.444 6.839,1.095c4.104,-0.617 6.506,-3.81 5.918,-7.716c-0.223,-1.483 -0.951,-4.306 -5.32,-6.127c-4.532,-1.897 -5.823,-2.411 -6.083,-4.141c-0.179,-1.187 0.696,-2.431 2.773,-2.743c2.62,-0.394 4.487,0.589 5.963,1.328l-0.669,-4.45Z" style="fill-rule:nonzero;"/><path d="M770.419,1309.07l1.27,24.117l4.194,-0.221l-0.518,-9.837l1.198,-0.063c1.848,-0.097 3.23,1.432 4.253,2.78c1.505,1.974 3.279,4.284 4.654,6.615l4.993,-0.263c-0.896,-0.854 -1.369,-1.28 -4.355,-5.679c-2.113,-3.043 -2.793,-3.608 -4.467,-4.972c1.077,-0.457 3.965,-1.711 3.72,-6.355c-0.355,-6.74 -6.854,-6.548 -9.25,-6.422l-5.692,0.3Zm5.437,3.419c2.846,-0.15 5.167,0.178 5.327,3.224c0.087,1.648 -0.715,2.591 -1.048,2.909c-0.81,0.794 -2.108,0.862 -3.556,0.938l-1.398,0.074l-0.374,-7.09l1.049,-0.055Z" style="fill-rule:nonzero;"/><path d="M797.381,1308.03l-4.15,0.058l0.339,24.147l4.15,-0.058l-0.339,-24.147Z" style="fill-rule:nonzero;"/><path d="M810.95,1332.44l1.3,0.035l10.645,-24.025l-4.499,-0.12l-6.607,15.179l-5.738,-15.508l-4.549,-0.122l9.448,24.561Z" style="fill-rule:nonzero;"/><path d="M831.152,1312.94l9.521,0.744l0.3,-3.838l-13.658,-1.068l-1.882,24.077l13.957,1.091l0.3,-3.838l-9.82,-0.768l0.499,-6.381l9.222,0.721l0.296,-3.788l-9.222,-0.721l0.487,-6.231Z" style="fill-rule:nonzero;"/><path d="M846.597,1310.37l-3.051,23.956l4.167,0.531l1.244,-9.771l1.19,0.151c1.835,0.234 2.923,1.985 3.688,3.494c1.13,2.21 2.464,4.8 3.401,7.338l4.96,0.632c-0.73,-1 -1.119,-1.504 -3.273,-6.364c-1.536,-3.372 -2.105,-4.049 -3.509,-5.689c1.142,-0.258 4.207,-0.977 4.794,-5.589c0.853,-6.696 -5.576,-7.666 -7.957,-7.969l-5.654,-0.72Zm4.74,4.333c2.827,0.36 5.052,1.097 4.667,4.123c-0.208,1.636 -1.165,2.422 -1.55,2.675c-0.938,0.637 -2.228,0.473 -3.666,0.289l-1.389,-0.176l0.897,-7.044l1.041,0.133Z" style="fill-rule:nonzero;"/><path d="M554.421,477.979l-9.867,76.559l78.413,43.754l13.137,17.225l-0.762,23.904l-69.905,66.683l17.438,49.738l-42.45,33.412l-38.358,85.525l-8.705,179.1l-63.091,68.446l34.312,38.525l25.05,96.042l7.3,82.154l59.542,56.562l6.146,20.563l-10.771,18.312l-70.708,-15.066" style="fill:none;stroke:#000;stroke-width:1.77px;"/><path d="M1684.46,401.288l103.53,39.441l10.491,11.4l-47.721,76.213l-14.141,47.954l17.645,24.871l52.492,2.591l2.825,11.955l-59.775,62.495l-12.608,66.838l9.096,29.171l29.808,29.979l-0.312,49.637l28.483,54.917l3.267,35.858l-46.459,28.33l-96.625,-43.742l-19.083,11.937l-6.471,20.55l30.325,41.934l9.621,105.337l59.975,20.688l28.371,66.787l53.087,24.979l46.379,-28.329l56.463,9.446l52.771,-20.521l111.162,48.042l56.784,74.612l16.566,48.771l-14.179,49.708l18.288,50.525l-5.33,11.155l-74.479,-17.259l-18.487,8.592l-10.692,57.437l-33.079,11.05l24.133,31.73l-29.2,47.945l23.454,58.337l33.55,-6.828l12.663,16.261l-2.488,23.104l-34.791,25.711l-7.175,33.379l93.162,69.141" style="fill:none;stroke:#000;stroke-width:1.77px;"/><path d="M1684.46,401.288l-22.312,9.699l-40.704,50.321l-49.575,5.217l-44.655,29.921l-104.783,-6.15l-45.662,11.992l-18.367,-10.296l-46.692,-155.892l-17.641,-26.625l6.504,-100.225l-26.317,-18.829l68.817,-32.442l62.25,-7.754l13.408,-17.037l-172.546,-202.059" style="fill:none;stroke:#000;stroke-width:1.77px;"/><path d="M554.421,477.979l99.946,89.596l22.016,-2.683l15.238,-35.038l75.608,-5.892l9.129,-48.033l57.146,-11.008l17.596,-30.817l29.888,-130.154l1.737,-62.467l42.433,-48.87l10.234,-36.801l61.658,-6.787l8.683,-6.842l-1.92,-44.62l23.6,-4.117l38.587,3.387l57.762,48.9l45.021,-10.233l14.046,-28.192l-46.296,-42.912l67.175,-49.65l16.5,-54.8l25.975,-28.817" style="fill:none;stroke:#000;stroke-width:1.77px;"/><path d="M2914.68,2046.83l-16.637,-37.612l3.612,-36.968l-9.2,-19.604l-70.766,6.745l-7.896,-54.74l-14.967,-16.26l-23.154,2.54l-12.229,18.002l-64.708,-29.987l-57.859,11.925l-11.108,19.594l13.046,51.476l14.912,29.487l-53.171,6.508l-35.508,-7.666l-46.896,-40.339l4.004,-31.39l22.23,-38.233l7.079,-60.389l-23.288,-30.448l-46.066,-12.851l-50.442,4.036l-36.575,20.058l-28.292,-3.841l-150.262,43.892l-46.659,-11.184l-27.962,-15.236l-10.167,9.077" style="fill:none;stroke:#000;stroke-width:1.77px;"/><path d="M2135.75,1823.42l6.946,61.354l9.638,30.76l9.929,16.499l1.637,16.654l-15.233,30.824l-13.725,19.432l-41.596,45.387l-50.842,20.363l-69.741,46.641l-47.321,4.906l-34.092,-19.147l-78.691,-70.651l-36.038,-15.644l-46.221,-5.773l-46.254,-16.768l-41.075,-26.486l-30.829,-35.242l-17.379,-49.333l-78.592,23.118l-39.321,-4.337l-49.437,-27.452l-78.179,2.638l-52.317,-49.846l-36.379,-14.615l-30.759,10.248l-35.616,39.405l-55.355,-24.037l-47.049,27.44l-62.976,-12.972l-63.82,23.039l-78.367,-43.747l-98.879,-11.263l-69.504,14.422l-15.167,16.316l-21.063,71.285" style="fill:none;stroke:#000;stroke-width:1.77px;"/><path d="M481.142,1419.42l-36.967,-7.534l-49.171,56.43l-52.599,12.041" style="fill:none;stroke:#000;stroke-width:1.77px;"/><path d="M481.142,1419.42l-7.279,29.312l5.183,57.375l60.742,57.438l-11.596,64.208l-37.95,35.089l4.4,83.107l14.279,14.518l45.108,-1.539l90.079,149.101l37.98,8.809" style="fill:none;stroke:#000;stroke-width:1.77px;"/><path d="M682.088,1916.84l8.095,44.309" style="fill:none;stroke:#000;stroke-width:1.77px;"/><path d="M-747.079,1730.45l65.937,-5.946l101.38,-58.956l88.683,27.709l100.708,-94.978l92.969,-135.229l143.27,56.704l40.675,35.275l41.178,-17.15l-1.004,-62.467l19.777,-8.575l92.087,35.184l42.971,33.525l11.804,-17.113l-37.036,-49.691l-1.431,-30.917l45.242,-2.488l69.227,51.567l34.037,-40.271l11.127,-70.258l11.738,-17.038l21.275,11.184l37.388,104.904l39.534,9.054l17.948,-4.121" style="fill:none;stroke:#000;stroke-width:1.77px;"/><path d="M880.296,2487.3l2.729,-35.133l-22.9,-32.533l-2.108,-36.016l-73.267,-35.138l-61.546,-107.154l21.188,-24.834l65.508,-16.977l1.954,-25.813l-14.608,-53.08l-46.046,-30.966l-53.025,-84.836l-7.992,-43.671" style="fill:none;stroke:#000;stroke-width:1.77px;"/><path d="M342.405,1480.35l-14.939,51.054l-32.898,40.034l-44.139,74.837l-53.196,74.826l-27.553,45.458l-16.94,58.778l-2.556,72.183l10.302,48.138l49.699,85.798l50.285,32.096l52.237,21.421l63.201,8.207l68.675,0.086l56.334,-26.701l76.271,-34.646l70.795,-32.106l42.2,-38.673" style="fill:none;stroke:#000;stroke-width:1.77px;"/><g id="Lines"><path d="M734.208,1353.19l162.7,0.179l22.792,-6.588l45.238,-28.875l24.616,-6.583l22.409,6.633l24.508,12.854l25.991,8.871l26.971,-5.229l33.838,-43.55l29.521,-122.429l37.758,-46.412l37.654,-20.521l23.996,-5.238l26.171,4.809l14.8,17.62l19.992,54.917l54.812,41.642l19.554,65.829l13.438,65.825l23.216,29.979l16.863,9.733l-0.371,21.83l-15.908,21.816l-123.388,49.767l33.063,36.679l42.075,11.833l75.637,-4.316l3.013,-14.817l17.55,-25.479l19.629,-8.029l13.908,63.671l13.304,12.6l84.459,36.325l25.566,21.375l11.521,39.366l2.238,76.173l-14.871,43.65l-26.9,39.337l-13.888,48.032l24.563,69.896l30.833,35.242l41.071,26.485l46.254,16.769l46.221,5.773l36.037,15.644l78.692,70.651l34.092,19.147l47.325,-4.906l69.737,-46.642l50.842,-20.362l41.6,-45.388l13.721,-19.431l15.237,-30.825l-1.637,-16.653l-9.929,-16.499l-9.642,-30.761l-6.946,-61.354l10.167,-8.997l27.962,15.157l46.663,11.183l150.258,-43.891l28.292,3.841l36.575,-20.058l50.442,-3.957l46.066,12.772l23.288,30.447l-7.079,60.39l-22.23,38.233l-4.004,31.39l46.896,40.338l35.508,7.667l86.413,-10.636l34.558,3.043" style="fill:none;stroke:#000;stroke-width:10.42px;"/><path d="M2725.53,1990.18l27.279,20.966l23.788,36.263l12.612,45.101l-5.975,47.005l91.784,37.006l128.658,136.052l93.625,-4.511l14.467,-10.034l13.829,-12.585l17.325,-11.787l25.671,-7.641l11.925,-7.645l11.02,-12.108l12.188,-5.016l50.733,39.931l0.8,3.984l30.771,0.326l22.325,-7.643l17.229,-19.755l15.205,-36.09l-21.984,-27.97l-3.346,-24.78l25.479,-29.553l-31.079,-58.648l27.084,-24.534l81.812,-2.93l23.546,-6.609l26.267,-28.916l22.037,-6.61l21.742,9.565l33.496,41.755l24.279,10.042l39.758,-8.28l47.038,-22.463l44.291,-30.271l69.292,-67.399l36.292,-7.965l36.712,10.997l38.438,21.992" style="fill:none;stroke:#000;stroke-width:10.42px;"/><path d="M-223.051,1395.99l65.296,51.966l54.746,63.98l18.232,9.108l21.357,-5.467l23.036,-1.721l44.816,36.238l25.118,-5.067l45.583,-22.325l124.686,-38.312l163.541,-7.913l40.494,-16.525l10.883,-12.891l10.676,-19.109l14.329,-18.946l21.571,-12.083l21.383,1.463l86.821,21.616l43.37,-9.829l121.321,-56.983" style="fill:none;stroke:#000;stroke-width:10.42px;"/></g><circle cx="1370.65" cy="1198.23" r="17.971"/><circle cx="1342.23" cy="1197.07" r="17.971"/><circle cx="843.537" cy="581.754" r="17.971"/><circle cx="1087.16" cy="205.633" r="17.971"/><ellipse cx="1587.53" cy="754.344" rx="17.971" ry="17.969"/><ellipse cx="1559.59" cy="1528.56" rx="17.969" ry="17.971"/><circle cx="1978.62" cy="1117.83" r="17.971"/><circle cx="1764.33" cy="543.571" r="17.971"/><circle cx="1310.71" cy="148.429" r="17.971"/><g transform="matrix(4.16667,0,0,4.16667,-41.6667,-41.6667)"><path d="M350.781,292.292c-0.564,-0.372 -1.212,-0.576 -1.884,-0.576c-1.476,0 -2.412,0.936 -2.412,2.172c0,0.516 0.156,0.9 0.408,1.224c0.36,0.456 0.732,0.684 2.028,1.464c0.384,0.228 1.08,0.732 1.08,1.416c0,0.696 -0.66,1.08 -1.272,1.08c-1.236,0 -1.968,-0.9 -2.208,-1.2l0,1.488c0.636,0.48 1.404,0.756 2.208,0.756c1.452,0 2.376,-0.948 2.376,-2.232c0,-0.588 -0.192,-1.032 -0.444,-1.356c-0.312,-0.42 -0.708,-0.708 -1.056,-0.912c-1.56,-0.912 -2.04,-1.2 -2.04,-1.896c0,-0.516 0.492,-0.948 1.296,-0.948c0.552,0 1.224,0.18 1.92,0.852l0,-1.332Z" style="fill-rule:nonzero;"/><path d="M353.493,293.504l-2.004,1.968l0,0.108l0.936,0l0,2.388c0,0.492 0,1.068 0.264,1.464c0.372,0.528 1.032,0.684 1.404,0.684c0.312,0 0.876,-0.084 1.38,-0.36l0,-0.996c-0.588,0.36 -0.996,0.384 -1.212,0.384c-0.108,0 -0.372,-0.012 -0.576,-0.228c-0.168,-0.192 -0.18,-0.312 -0.192,-0.984l0,-2.352l1.704,0l0,-0.96l-1.704,0l0,-1.116Z" style="fill-rule:nonzero;"/><path d="M364.269,291.824l-4.368,0l0,8.184l1.176,0l0,-3.804l3.192,0l0,-1.056l-3.192,0l0,-2.268l3.192,0l0,-1.056Z" style="fill-rule:nonzero;"/><path d="M365.325,294.62l0,5.388l1.068,0l0,-2.82c0,-1.224 0.876,-1.656 1.272,-1.656c0.42,0 0.9,0.396 1.032,0.528l0.564,-0.936c-0.624,-0.6 -1.104,-0.612 -1.26,-0.612c-0.756,0 -1.26,0.804 -1.608,1.344l0,-1.236l-1.068,0Z" style="fill-rule:nonzero;"/><path d="M370.557,292.352c-0.36,0 -0.624,0.324 -0.624,0.624c0,0.264 0.216,0.636 0.624,0.636c0.348,0 0.636,-0.3 0.636,-0.636c0,-0.336 -0.276,-0.624 -0.636,-0.624Zm0.54,2.268l-1.068,0l0,5.388l1.068,0l0,-5.388Z" style="fill-rule:nonzero;"/><path d="M377.301,291.824l-1.08,0l0,2.904c-0.216,-0.084 -0.624,-0.216 -1.164,-0.216c-1.356,0 -2.652,0.96 -2.652,2.712c0,1.044 0.504,2.784 2.616,2.784l2.28,0l0,-8.184Zm-1.08,7.284l-0.816,0c-0.564,0 -0.84,-0.024 -1.128,-0.168c-0.408,-0.204 -0.792,-0.672 -0.792,-1.584c0,-1.356 0.84,-1.932 1.74,-1.932c0.504,0 0.792,0.144 0.996,0.252l0,3.432Z" style="fill-rule:nonzero;"/><path d="M383.253,298.436c-0.576,0.42 -1.26,0.66 -1.956,0.66c-1.176,0 -1.704,-0.888 -1.74,-1.692l3.792,0c0,-0.204 0,-0.444 -0.06,-0.804c-0.18,-1.188 -1.032,-2.088 -2.292,-2.088c-1.464,0 -2.52,1.092 -2.52,2.772c0,0.516 0.096,1.344 0.804,2.076c0.648,0.672 1.296,0.756 1.86,0.756c1.128,0 1.74,-0.396 2.112,-0.636l0,-1.044Zm-3.672,-1.668c0.036,-0.24 0.084,-0.564 0.372,-0.876c0.288,-0.324 0.696,-0.456 1.032,-0.456c1.212,0 1.296,1.116 1.308,1.332l-2.712,0Z" style="fill-rule:nonzero;"/><path d="M387.621,294.956c-0.252,-0.132 -0.828,-0.444 -1.632,-0.444c-1.032,0 -1.716,0.612 -1.716,1.404c0,0.9 0.78,1.38 1.668,1.872c0.504,0.276 0.828,0.456 0.828,0.84c0,0.36 -0.48,0.552 -0.816,0.552c-0.288,0 -0.948,-0.18 -1.716,-0.708l0,1.152c0.54,0.264 1.044,0.492 1.8,0.492c1.464,0 1.848,-1.02 1.848,-1.524c0,-0.72 -0.576,-1.272 -1.344,-1.692c-0.792,-0.444 -1.164,-0.636 -1.164,-0.984c0,-0.204 0.18,-0.48 0.684,-0.48c0.504,0 0.96,0.204 1.56,0.576l0,-1.056Z" style="fill-rule:nonzero;"/><path d="M396.993,294.62l-1.14,0l-1.404,3.264l-1.368,-3.264l-0.792,0l-1.368,3.264l-1.416,-3.264l-1.14,0l2.4,5.496l0.348,0l1.572,-3.768l1.596,3.768l0.336,0l2.376,-5.496Z" style="fill-rule:nonzero;"/><path d="M398.301,292.352c-0.36,0 -0.624,0.324 -0.624,0.624c0,0.264 0.216,0.636 0.624,0.636c0.348,0 0.636,-0.3 0.636,-0.636c0,-0.336 -0.276,-0.624 -0.636,-0.624Zm0.54,2.268l-1.068,0l0,5.388l1.068,0l0,-5.388Z" style="fill-rule:nonzero;"/><path d="M405.045,291.824l-1.08,0l0,2.904c-0.216,-0.084 -0.624,-0.216 -1.164,-0.216c-1.356,0 -2.652,0.96 -2.652,2.712c0,1.044 0.504,2.784 2.616,2.784l2.28,0l0,-8.184Zm-1.08,7.284l-0.816,0c-0.564,0 -0.84,-0.024 -1.128,-0.168c-0.408,-0.204 -0.792,-0.672 -0.792,-1.584c0,-1.356 0.84,-1.932 1.74,-1.932c0.504,0 0.792,0.144 0.996,0.252l0,3.432Z" style="fill-rule:nonzero;"/><path d="M410.997,298.436c-0.576,0.42 -1.26,0.66 -1.956,0.66c-1.176,0 -1.704,-0.888 -1.74,-1.692l3.792,0c0,-0.204 0,-0.444 -0.06,-0.804c-0.18,-1.188 -1.032,-2.088 -2.292,-2.088c-1.464,0 -2.52,1.092 -2.52,2.772c0,0.516 0.096,1.344 0.804,2.076c0.648,0.672 1.296,0.756 1.86,0.756c1.128,0 1.74,-0.396 2.112,-0.636l0,-1.044Zm-3.672,-1.668c0.036,-0.24 0.084,-0.564 0.372,-0.876c0.288,-0.324 0.696,-0.456 1.032,-0.456c1.212,0 1.296,1.116 1.308,1.332l-2.712,0Z" style="fill-rule:nonzero;"/><path d="M412.077,294.692c1.404,-0.444 1.404,-1.716 1.404,-1.848c0,-0.588 -0.3,-1.128 -0.816,-1.128c-0.396,0 -0.72,0.36 -0.72,0.78c0,0.108 0,0.576 0.624,0.768c-0.024,0.48 -0.096,0.816 -0.492,1.2l0,0.228Z" style="fill-rule:nonzero;"/><path d="M417.993,294.956c-0.252,-0.132 -0.828,-0.444 -1.632,-0.444c-1.032,0 -1.716,0.612 -1.716,1.404c0,0.9 0.78,1.38 1.668,1.872c0.504,0.276 0.828,0.456 0.828,0.84c0,0.36 -0.48,0.552 -0.816,0.552c-0.288,0 -0.948,-0.18 -1.716,-0.708l0,1.152c0.54,0.264 1.044,0.492 1.8,0.492c1.464,0 1.848,-1.02 1.848,-1.524c0,-0.72 -0.576,-1.272 -1.344,-1.692c-0.792,-0.444 -1.164,-0.636 -1.164,-0.984c0,-0.204 0.18,-0.48 0.684,-0.48c0.504,0 0.96,0.204 1.56,0.576l0,-1.056Z" style="fill-rule:nonzero;"/><path d="M422.913,291.824l0,8.184l1.176,0l0,-3.552l0.864,0c1.272,0 1.92,-0.168 2.436,-0.66c0.612,-0.588 0.684,-1.248 0.684,-1.656c0,-0.744 -0.276,-1.26 -0.636,-1.62c-0.684,-0.696 -1.44,-0.696 -2.412,-0.696l-2.112,0Zm2.064,1.032c0.84,0 1.164,0 1.524,0.348c0.288,0.264 0.36,0.624 0.36,0.912c0,0.516 -0.216,0.888 -0.54,1.08c-0.348,0.216 -0.828,0.216 -1.296,0.216l-0.936,0l0,-2.556l0.888,0Z" style="fill-rule:nonzero;"/><path d="M428.901,294.62l0,5.388l1.068,0l0,-2.82c0,-1.224 0.876,-1.656 1.272,-1.656c0.42,0 0.9,0.396 1.032,0.528l0.564,-0.936c-0.624,-0.6 -1.104,-0.612 -1.26,-0.612c-0.756,0 -1.26,0.804 -1.608,1.344l0,-1.236l-1.068,0Z" style="fill-rule:nonzero;"/><path d="M434.133,292.352c-0.36,0 -0.624,0.324 -0.624,0.624c0,0.264 0.216,0.636 0.624,0.636c0.348,0 0.636,-0.3 0.636,-0.636c0,-0.336 -0.276,-0.624 -0.636,-0.624Zm0.54,2.268l-1.068,0l0,5.388l1.068,0l0,-5.388Z" style="fill-rule:nonzero;"/><path d="M438.789,294.512c-1.8,0 -2.904,1.284 -2.904,2.796c0,1.536 1.14,2.808 2.868,2.808c1.332,0 2.892,-0.864 2.892,-2.784c0,-1.704 -1.248,-2.82 -2.856,-2.82Zm-0.06,0.96c0.768,0 1.824,0.48 1.824,1.836c0,1.092 -0.72,1.848 -1.776,1.848c-0.792,0 -1.8,-0.48 -1.8,-1.836c0,-1.188 0.792,-1.848 1.752,-1.848Z" style="fill-rule:nonzero;"/><path d="M442.785,294.62l0,5.388l1.068,0l0,-2.82c0,-1.224 0.876,-1.656 1.272,-1.656c0.42,0 0.9,0.396 1.032,0.528l0.564,-0.936c-0.624,-0.6 -1.104,-0.612 -1.26,-0.612c-0.756,0 -1.26,0.804 -1.608,1.344l0,-1.236l-1.068,0Z" style="fill-rule:nonzero;"/><path d="M451.965,294.62l-1.2,0l-1.392,3.036l-1.452,-3.036l-1.212,0l2.088,4.236l-1.836,3.912l1.188,0l3.816,-8.148Z" style="fill-rule:nonzero;"/></g><g transform="matrix(4.16667,0,0,4.16667,-41.6667,-41.6667)"><path d="M225.01,145.555c-0.528,-0.228 -1.608,-0.672 -2.868,-0.672c-2.592,0 -4.428,1.956 -4.428,4.212c0,1.908 1.368,4.188 4.404,4.188c1.044,0 2.028,-0.204 2.976,-0.72l0,-1.284c-0.864,0.564 -1.872,0.912 -2.904,0.912c-2.172,0 -3.252,-1.56 -3.252,-3.084c0,-1.644 1.26,-3.108 3.24,-3.108c0.996,0 1.968,0.324 2.832,0.816l0,-1.26Z" style="fill-rule:nonzero;"/><path d="M228.97,147.679c-1.8,0 -2.904,1.284 -2.904,2.796c0,1.536 1.14,2.808 2.868,2.808c1.332,0 2.892,-0.864 2.892,-2.784c0,-1.704 -1.248,-2.82 -2.856,-2.82Zm-0.06,0.96c0.768,0 1.824,0.48 1.824,1.836c0,1.092 -0.72,1.848 -1.776,1.848c-0.792,0 -1.8,-0.48 -1.8,-1.836c0,-1.188 0.792,-1.848 1.752,-1.848Z" style="fill-rule:nonzero;"/><rect x="233.038" y="144.991" width="1.068" height="8.184" style="fill-rule:nonzero;"/><path d="M240.31,144.991l-1.08,0l0,2.904c-0.216,-0.084 -0.624,-0.216 -1.164,-0.216c-1.356,0 -2.652,0.96 -2.652,2.712c0,1.044 0.504,2.784 2.616,2.784l2.28,0l0,-8.184Zm-1.08,7.284l-0.816,0c-0.564,0 -0.84,-0.024 -1.128,-0.168c-0.408,-0.204 -0.792,-0.672 -0.792,-1.584c0,-1.356 0.84,-1.932 1.74,-1.932c0.504,0 0.792,0.144 0.996,0.252l0,3.432Z" style="fill-rule:nonzero;"/><path d="M252.862,144.991l-1.116,0l0,6.348l-5.52,-6.348l-0.948,0l0,8.184l1.104,0l0,-6.3l5.472,6.3l1.008,0l0,-8.184Z" style="fill-rule:nonzero;"/><path d="M257.05,147.679c-1.8,0 -2.904,1.284 -2.904,2.796c0,1.536 1.14,2.808 2.868,2.808c1.332,0 2.892,-0.864 2.892,-2.784c0,-1.704 -1.248,-2.82 -2.856,-2.82Zm-0.06,0.96c0.768,0 1.824,0.48 1.824,1.836c0,1.092 -0.72,1.848 -1.776,1.848c-0.792,0 -1.8,-0.48 -1.8,-1.836c0,-1.188 0.792,-1.848 1.752,-1.848Z" style="fill-rule:nonzero;"/><path d="M261.046,147.787l0,5.388l1.068,0l0,-2.82c0,-1.224 0.876,-1.656 1.272,-1.656c0.42,0 0.9,0.396 1.032,0.528l0.564,-0.936c-0.624,-0.6 -1.104,-0.612 -1.26,-0.612c-0.756,0 -1.26,0.804 -1.608,1.344l0,-1.236l-1.068,0Z" style="fill-rule:nonzero;"/><path d="M266.974,146.671l-2.004,1.968l0,0.108l0.936,0l0,2.388c0,0.492 0,1.068 0.264,1.464c0.372,0.528 1.032,0.684 1.404,0.684c0.312,0 0.876,-0.084 1.38,-0.36l0,-0.996c-0.588,0.36 -0.996,0.384 -1.212,0.384c-0.108,0 -0.372,-0.012 -0.576,-0.228c-0.168,-0.192 -0.18,-0.312 -0.192,-0.984l0,-2.352l1.704,0l0,-0.96l-1.704,0l0,-1.116Z" style="fill-rule:nonzero;"/><path d="M272.47,147.679c-1.8,0 -2.904,1.284 -2.904,2.796c0,1.536 1.14,2.808 2.868,2.808c1.332,0 2.892,-0.864 2.892,-2.784c0,-1.704 -1.248,-2.82 -2.856,-2.82Zm-0.06,0.96c0.768,0 1.824,0.48 1.824,1.836c0,1.092 -0.72,1.848 -1.776,1.848c-0.792,0 -1.8,-0.48 -1.8,-1.836c0,-1.188 0.792,-1.848 1.752,-1.848Z" style="fill-rule:nonzero;"/><path d="M276.49,147.787l0,5.388l1.092,0l0,-3.852c0.324,-0.468 0.78,-0.756 1.272,-0.756c0.36,0 0.6,0.108 0.804,0.336c0.288,0.324 0.288,0.624 0.288,1.2l0,3.072l1.08,0l0,-3.072c0,-0.984 -0.132,-1.296 -0.3,-1.56c-0.444,-0.744 -1.188,-0.864 -1.524,-0.864c-0.504,0 -1.14,0.252 -1.62,0.792l0,-0.684l-1.092,0Z" style="fill-rule:nonzero;"/><path d="M285.934,144.991l0,8.184l1.176,0l0,-3.552l0.864,0c1.272,0 1.92,-0.168 2.436,-0.66c0.612,-0.588 0.684,-1.248 0.684,-1.656c0,-0.744 -0.276,-1.26 -0.636,-1.62c-0.684,-0.696 -1.44,-0.696 -2.412,-0.696l-2.112,0Zm2.064,1.032c0.84,0 1.164,0 1.524,0.348c0.288,0.264 0.36,0.624 0.36,0.912c0,0.516 -0.216,0.888 -0.54,1.08c-0.348,0.216 -0.828,0.216 -1.296,0.216l-0.936,0l0,-2.556l0.888,0Z" style="fill-rule:nonzero;"/><path d="M291.922,147.787l0,5.388l1.068,0l0,-2.82c0,-1.224 0.876,-1.656 1.272,-1.656c0.42,0 0.9,0.396 1.032,0.528l0.564,-0.936c-0.624,-0.6 -1.104,-0.612 -1.26,-0.612c-0.756,0 -1.26,0.804 -1.608,1.344l0,-1.236l-1.068,0Z" style="fill-rule:nonzero;"/><path d="M297.154,145.519c-0.36,0 -0.624,0.324 -0.624,0.624c0,0.264 0.216,0.636 0.624,0.636c0.348,0 0.636,-0.3 0.636,-0.636c0,-0.336 -0.276,-0.624 -0.636,-0.624Zm0.54,2.268l-1.068,0l0,5.388l1.068,0l0,-5.388Z" style="fill-rule:nonzero;"/><path d="M301.81,147.679c-1.8,0 -2.904,1.284 -2.904,2.796c0,1.536 1.14,2.808 2.868,2.808c1.332,0 2.892,-0.864 2.892,-2.784c0,-1.704 -1.248,-2.82 -2.856,-2.82Zm-0.06,0.96c0.768,0 1.824,0.48 1.824,1.836c0,1.092 -0.72,1.848 -1.776,1.848c-0.792,0 -1.8,-0.48 -1.8,-1.836c0,-1.188 0.792,-1.848 1.752,-1.848Z" style="fill-rule:nonzero;"/><path d="M305.806,147.787l0,5.388l1.068,0l0,-2.82c0,-1.224 0.876,-1.656 1.272,-1.656c0.42,0 0.9,0.396 1.032,0.528l0.564,-0.936c-0.624,-0.6 -1.104,-0.612 -1.26,-0.612c-0.756,0 -1.26,0.804 -1.608,1.344l0,-1.236l-1.068,0Z" style="fill-rule:nonzero;"/><path d="M314.986,147.787l-1.2,0l-1.392,3.036l-1.452,-3.036l-1.212,0l2.088,4.236l-1.836,3.912l1.188,0l3.816,-8.148Z" style="fill-rule:nonzero;"/></g><g transform="matrix(4.16667,0,0,4.16667,-41.6667,-41.6667)"><path d="M198.966,54.811l-1.164,0l-2.232,5.64l-2.28,-5.64l-1.116,0l-2.268,5.64l-2.256,-5.64l-1.176,0l3.3,8.232l0.252,0l2.7,-6.672l2.676,6.672l0.252,0l3.312,-8.232Z" style="fill-rule:nonzero;"/><path d="M199.686,57.607l0,5.388l1.068,0l0,-2.82c0,-1.224 0.876,-1.656 1.272,-1.656c0.42,0 0.9,0.396 1.032,0.528l0.564,-0.936c-0.624,-0.6 -1.104,-0.612 -1.26,-0.612c-0.756,0 -1.26,0.804 -1.608,1.344l0,-1.236l-1.068,0Z" style="fill-rule:nonzero;"/><path d="M206.946,57.499c-1.8,0 -2.904,1.284 -2.904,2.796c0,1.536 1.14,2.808 2.868,2.808c1.332,0 2.892,-0.864 2.892,-2.784c0,-1.704 -1.248,-2.82 -2.856,-2.82Zm-0.06,0.96c0.768,0 1.824,0.48 1.824,1.836c0,1.092 -0.72,1.848 -1.776,1.848c-0.792,0 -1.8,-0.48 -1.8,-1.836c0,-1.188 0.792,-1.848 1.752,-1.848Z" style="fill-rule:nonzero;"/><path d="M216.078,57.607l-1.368,0l-1.536,1.848l-1.596,-1.848l-1.344,0l2.268,2.652l-2.268,2.736l1.344,0l1.596,-1.932l1.692,1.932l1.368,0l-2.376,-2.736l2.22,-2.652Z" style="fill-rule:nonzero;"/><path d="M218.238,56.491l-2.004,1.968l0,0.108l0.936,0l0,2.388c0,0.492 0,1.068 0.264,1.464c0.372,0.528 1.032,0.684 1.404,0.684c0.312,0 0.876,-0.084 1.38,-0.36l0,-0.996c-0.588,0.36 -0.996,0.384 -1.212,0.384c-0.108,0 -0.372,-0.012 -0.576,-0.228c-0.168,-0.192 -0.18,-0.312 -0.192,-0.984l0,-2.352l1.704,0l0,-0.96l-1.704,0l0,-1.116Z" style="fill-rule:nonzero;"/><path d="M223.734,57.499c-1.8,0 -2.904,1.284 -2.904,2.796c0,1.536 1.14,2.808 2.868,2.808c1.332,0 2.892,-0.864 2.892,-2.784c0,-1.704 -1.248,-2.82 -2.856,-2.82Zm-0.06,0.96c0.768,0 1.824,0.48 1.824,1.836c0,1.092 -0.72,1.848 -1.776,1.848c-0.792,0 -1.8,-0.48 -1.8,-1.836c0,-1.188 0.792,-1.848 1.752,-1.848Z" style="fill-rule:nonzero;"/><path d="M227.754,57.607l0,5.388l1.092,0l0,-3.852c0.324,-0.468 0.78,-0.756 1.272,-0.756c0.36,0 0.6,0.108 0.804,0.336c0.288,0.324 0.288,0.624 0.288,1.2l0,3.072l1.08,0l0,-3.072c0,-0.984 -0.132,-1.296 -0.3,-1.56c-0.444,-0.744 -1.188,-0.864 -1.524,-0.864c-0.504,0 -1.14,0.252 -1.62,0.792l0,-0.684l-1.092,0Z" style="fill-rule:nonzero;"/><path d="M240.702,54.763l-0.828,0l-3.516,8.232l1.2,0l1.032,-2.412l3.48,0l1.092,2.412l1.2,0l-3.66,-8.232Zm-1.656,4.764l1.224,-2.964l1.32,2.964l-2.544,0Z" style="fill-rule:nonzero;"/><path d="M246.138,54.811l-1.068,0l0,7.884c0.516,0.252 1.404,0.42 2.088,0.42c1.476,0 2.784,-0.972 2.784,-2.868c0,-1.512 -0.876,-2.748 -2.316,-2.748c-0.804,0 -1.308,0.36 -1.488,0.492l0,-3.18Zm0,4.2c0.216,-0.192 0.612,-0.528 1.212,-0.528c0.768,0 1.512,0.6 1.512,1.812c0,1.344 -0.96,1.8 -1.596,1.8c-0.18,0 -0.696,-0.036 -1.128,-0.168l0,-2.916Z" style="fill-rule:nonzero;"/><path d="M252.138,54.811l-1.068,0l0,7.884c0.516,0.252 1.404,0.42 2.088,0.42c1.476,0 2.784,-0.972 2.784,-2.868c0,-1.512 -0.876,-2.748 -2.316,-2.748c-0.804,0 -1.308,0.36 -1.488,0.492l0,-3.18Zm0,4.2c0.216,-0.192 0.612,-0.528 1.212,-0.528c0.768,0 1.512,0.6 1.512,1.812c0,1.344 -0.96,1.8 -1.596,1.8c-0.18,0 -0.696,-0.036 -1.128,-0.168l0,-2.916Z" style="fill-rule:nonzero;"/><path d="M261.618,61.423c-0.576,0.42 -1.26,0.66 -1.956,0.66c-1.176,0 -1.704,-0.888 -1.74,-1.692l3.792,0c0,-0.204 0,-0.444 -0.06,-0.804c-0.18,-1.188 -1.032,-2.088 -2.292,-2.088c-1.464,0 -2.52,1.092 -2.52,2.772c0,0.516 0.096,1.344 0.804,2.076c0.648,0.672 1.296,0.756 1.86,0.756c1.128,0 1.74,-0.396 2.112,-0.636l0,-1.044Zm-3.672,-1.668c0.036,-0.24 0.084,-0.564 0.372,-0.876c0.288,-0.324 0.696,-0.456 1.032,-0.456c1.212,0 1.296,1.116 1.308,1.332l-2.712,0Z" style="fill-rule:nonzero;"/><path d="M267.366,57.607l-1.2,0l-1.392,3.036l-1.452,-3.036l-1.212,0l2.088,4.236l-1.836,3.912l1.188,0l3.816,-8.148Z" style="fill-rule:nonzero;"/></g><g transform="matrix(4.16667,0,0,4.16667,-41.6667,-41.6667)"><path d="M398.026,185.418l0,8.184l2.268,0c0.876,0 1.26,0 1.74,-0.168c0.492,-0.168 1.596,-0.732 1.596,-2.064c0,-1.044 -0.756,-1.872 -1.956,-2.1c0.936,-0.396 1.248,-1.032 1.248,-1.728c0,-1.008 -0.6,-1.656 -1.38,-1.944c-0.384,-0.144 -0.78,-0.18 -1.368,-0.18l-2.148,0Zm1.944,1.044c0.348,0 0.828,0 1.164,0.156c0.36,0.168 0.576,0.564 0.576,1.02c0,0.648 -0.408,0.972 -0.636,1.092c-0.288,0.168 -0.804,0.192 -1.104,0.192l-0.78,0l0,-2.46l0.78,0Zm0.324,3.516c0.636,0 1.032,0.036 1.344,0.168c0.612,0.252 0.78,0.768 0.78,1.116c0,0.432 -0.252,0.948 -0.852,1.176c-0.3,0.12 -0.876,0.12 -1.212,0.12l-1.164,0l0,-2.58l1.104,0Z" style="fill-rule:nonzero;"/><path d="M405.178,185.946c-0.36,0 -0.624,0.324 -0.624,0.624c0,0.264 0.216,0.636 0.624,0.636c0.348,0 0.636,-0.3 0.636,-0.636c0,-0.336 -0.276,-0.624 -0.636,-0.624Zm0.54,2.268l-1.068,0l0,5.388l1.068,0l0,-5.388Z" style="fill-rule:nonzero;"/><path d="M411.178,188.478c-0.42,-0.18 -0.864,-0.372 -1.56,-0.372c-1.92,0 -2.664,1.524 -2.664,2.832c0,1.476 0.912,2.772 2.772,2.772c0.768,0 1.332,-0.228 1.572,-0.312l0,-1.056c-0.396,0.18 -0.852,0.36 -1.416,0.36c-1.32,0 -1.848,-0.9 -1.848,-1.8c0,-0.852 0.528,-1.8 1.644,-1.8c0.696,0 1.2,0.324 1.5,0.516l0,-1.14Z" style="fill-rule:nonzero;"/><path d="M416.998,192.03c-0.576,0.42 -1.26,0.66 -1.956,0.66c-1.176,0 -1.704,-0.888 -1.74,-1.692l3.792,0c0,-0.204 0,-0.444 -0.06,-0.804c-0.18,-1.188 -1.032,-2.088 -2.292,-2.088c-1.464,0 -2.52,1.092 -2.52,2.772c0,0.516 0.096,1.344 0.804,2.076c0.648,0.672 1.296,0.756 1.86,0.756c1.128,0 1.74,-0.396 2.112,-0.636l0,-1.044Zm-3.672,-1.668c0.036,-0.24 0.084,-0.564 0.372,-0.876c0.288,-0.324 0.696,-0.456 1.032,-0.456c1.212,0 1.296,1.116 1.308,1.332l-2.712,0Z" style="fill-rule:nonzero;"/><path d="M421.366,188.55c-0.252,-0.132 -0.828,-0.444 -1.632,-0.444c-1.032,0 -1.716,0.612 -1.716,1.404c0,0.9 0.78,1.38 1.668,1.872c0.504,0.276 0.828,0.456 0.828,0.84c0,0.36 -0.48,0.552 -0.816,0.552c-0.288,0 -0.948,-0.18 -1.716,-0.708l0,1.152c0.54,0.264 1.044,0.492 1.8,0.492c1.464,0 1.848,-1.02 1.848,-1.524c0,-0.72 -0.576,-1.272 -1.344,-1.692c-0.792,-0.444 -1.164,-0.636 -1.164,-0.984c0,-0.204 0.18,-0.48 0.684,-0.48c0.504,0 0.96,0.204 1.56,0.576l0,-1.056Z" style="fill-rule:nonzero;"/><path d="M424.114,187.098l-2.004,1.968l0,0.108l0.936,0l0,2.388c0,0.492 0,1.068 0.264,1.464c0.372,0.528 1.032,0.684 1.404,0.684c0.312,0 0.876,-0.084 1.38,-0.36l0,-0.996c-0.588,0.36 -0.996,0.384 -1.212,0.384c-0.108,0 -0.372,-0.012 -0.576,-0.228c-0.168,-0.192 -0.18,-0.312 -0.192,-0.984l0,-2.352l1.704,0l0,-0.96l-1.704,0l0,-1.116Z" style="fill-rule:nonzero;"/><path d="M431.53,192.03c-0.576,0.42 -1.26,0.66 -1.956,0.66c-1.176,0 -1.704,-0.888 -1.74,-1.692l3.792,0c0,-0.204 0,-0.444 -0.06,-0.804c-0.18,-1.188 -1.032,-2.088 -2.292,-2.088c-1.464,0 -2.52,1.092 -2.52,2.772c0,0.516 0.096,1.344 0.804,2.076c0.648,0.672 1.296,0.756 1.86,0.756c1.128,0 1.74,-0.396 2.112,-0.636l0,-1.044Zm-3.672,-1.668c0.036,-0.24 0.084,-0.564 0.372,-0.876c0.288,-0.324 0.696,-0.456 1.032,-0.456c1.212,0 1.296,1.116 1.308,1.332l-2.712,0Z" style="fill-rule:nonzero;"/><path d="M432.73,188.214l0,5.388l1.068,0l0,-2.82c0,-1.224 0.876,-1.656 1.272,-1.656c0.42,0 0.9,0.396 1.032,0.528l0.564,-0.936c-0.624,-0.6 -1.104,-0.612 -1.26,-0.612c-0.756,0 -1.26,0.804 -1.608,1.344l0,-1.236l-1.068,0Z" style="fill-rule:nonzero;"/><path d="M440.83,185.418l0,8.184l1.176,0l0,-3.552l0.864,0c1.272,0 1.92,-0.168 2.436,-0.66c0.612,-0.588 0.684,-1.248 0.684,-1.656c0,-0.744 -0.276,-1.26 -0.636,-1.62c-0.684,-0.696 -1.44,-0.696 -2.412,-0.696l-2.112,0Zm2.064,1.032c0.84,0 1.164,0 1.524,0.348c0.288,0.264 0.36,0.624 0.36,0.912c0,0.516 -0.216,0.888 -0.54,1.08c-0.348,0.216 -0.828,0.216 -1.296,0.216l-0.936,0l0,-2.556l0.888,0Z" style="fill-rule:nonzero;"/><path d="M446.818,188.214l0,5.388l1.068,0l0,-2.82c0,-1.224 0.876,-1.656 1.272,-1.656c0.42,0 0.9,0.396 1.032,0.528l0.564,-0.936c-0.624,-0.6 -1.104,-0.612 -1.26,-0.612c-0.756,0 -1.26,0.804 -1.608,1.344l0,-1.236l-1.068,0Z" style="fill-rule:nonzero;"/><path d="M452.05,185.946c-0.36,0 -0.624,0.324 -0.624,0.624c0,0.264 0.216,0.636 0.624,0.636c0.348,0 0.636,-0.3 0.636,-0.636c0,-0.336 -0.276,-0.624 -0.636,-0.624Zm0.54,2.268l-1.068,0l0,5.388l1.068,0l0,-5.388Z" style="fill-rule:nonzero;"/><path d="M456.706,188.106c-1.8,0 -2.904,1.284 -2.904,2.796c0,1.536 1.14,2.808 2.868,2.808c1.332,0 2.892,-0.864 2.892,-2.784c0,-1.704 -1.248,-2.82 -2.856,-2.82Zm-0.06,0.96c0.768,0 1.824,0.48 1.824,1.836c0,1.092 -0.72,1.848 -1.776,1.848c-0.792,0 -1.8,-0.48 -1.8,-1.836c0,-1.188 0.792,-1.848 1.752,-1.848Z" style="fill-rule:nonzero;"/><path d="M460.702,188.214l0,5.388l1.068,0l0,-2.82c0,-1.224 0.876,-1.656 1.272,-1.656c0.42,0 0.9,0.396 1.032,0.528l0.564,-0.936c-0.624,-0.6 -1.104,-0.612 -1.26,-0.612c-0.756,0 -1.26,0.804 -1.608,1.344l0,-1.236l-1.068,0Z" style="fill-rule:nonzero;"/><path d="M469.882,188.214l-1.2,0l-1.392,3.036l-1.452,-3.036l-1.212,0l2.088,4.236l-1.836,3.912l1.188,0l3.816,-8.148Z" style="fill-rule:nonzero;"/></g><g transform="matrix(4.16667,0,0,4.16667,-41.6667,-41.6667)"><path d="M389.269,372.226l0,8.184l2.592,0c0.84,0 1.968,0 2.964,-0.612c0.504,-0.312 1.968,-1.404 1.968,-3.48c0,-1.404 -0.66,-2.556 -1.572,-3.252c-1.092,-0.84 -2.424,-0.84 -3.192,-0.84l-2.76,0Zm2.64,1.044c0.744,0 1.296,0 1.968,0.3c1.248,0.552 1.704,1.692 1.704,2.688c0,1.116 -0.54,2.112 -1.368,2.628c-0.696,0.42 -1.656,0.468 -2.268,0.468l-1.512,0l0,-6.084l1.476,0Z" style="fill-rule:nonzero;"/><path d="M400.693,374.914c-1.8,0 -2.904,1.284 -2.904,2.796c0,1.536 1.14,2.808 2.868,2.808c1.332,0 2.892,-0.864 2.892,-2.784c0,-1.704 -1.248,-2.82 -2.856,-2.82Zm-0.06,0.96c0.768,0 1.824,0.48 1.824,1.836c0,1.092 -0.72,1.848 -1.776,1.848c-0.792,0 -1.8,-0.48 -1.8,-1.836c0,-1.188 0.792,-1.848 1.752,-1.848Z" style="fill-rule:nonzero;"/><path d="M404.689,375.022l0,5.388l1.068,0l0,-2.82c0,-1.224 0.876,-1.656 1.272,-1.656c0.42,0 0.9,0.396 1.032,0.528l0.564,-0.936c-0.624,-0.6 -1.104,-0.612 -1.26,-0.612c-0.756,0 -1.26,0.804 -1.608,1.344l0,-1.236l-1.068,0Z" style="fill-rule:nonzero;"/><path d="M413.293,375.286c-0.42,-0.18 -0.864,-0.372 -1.56,-0.372c-1.92,0 -2.664,1.524 -2.664,2.832c0,1.476 0.912,2.772 2.772,2.772c0.768,0 1.332,-0.228 1.572,-0.312l0,-1.056c-0.396,0.18 -0.852,0.36 -1.416,0.36c-1.32,0 -1.848,-0.9 -1.848,-1.8c0,-0.852 0.528,-1.8 1.644,-1.8c0.696,0 1.2,0.324 1.5,0.516l0,-1.14Z" style="fill-rule:nonzero;"/><path d="M415.657,372.226l-1.068,0l0,8.184l1.068,0l0,-3.864c0.468,-0.528 0.84,-0.792 1.356,-0.792c0.324,0 0.66,0.18 0.852,0.492c0.084,0.144 0.192,0.396 0.192,0.828l0,3.336l1.068,0l0,-3.072c0,-0.528 -0.06,-1.044 -0.204,-1.404c-0.228,-0.54 -0.804,-1.02 -1.608,-1.02c-0.636,0 -1.236,0.312 -1.656,0.816l0,-3.504Z" style="fill-rule:nonzero;"/><path d="M425.113,378.838c-0.576,0.42 -1.26,0.66 -1.956,0.66c-1.176,0 -1.704,-0.888 -1.74,-1.692l3.792,0c0,-0.204 0,-0.444 -0.06,-0.804c-0.18,-1.188 -1.032,-2.088 -2.292,-2.088c-1.464,0 -2.52,1.092 -2.52,2.772c0,0.516 0.096,1.344 0.804,2.076c0.648,0.672 1.296,0.756 1.86,0.756c1.128,0 1.74,-0.396 2.112,-0.636l0,-1.044Zm-3.672,-1.668c0.036,-0.24 0.084,-0.564 0.372,-0.876c0.288,-0.324 0.696,-0.456 1.032,-0.456c1.212,0 1.296,1.116 1.308,1.332l-2.712,0Z" style="fill-rule:nonzero;"/><path d="M429.481,375.358c-0.252,-0.132 -0.828,-0.444 -1.632,-0.444c-1.032,0 -1.716,0.612 -1.716,1.404c0,0.9 0.78,1.38 1.668,1.872c0.504,0.276 0.828,0.456 0.828,0.84c0,0.36 -0.48,0.552 -0.816,0.552c-0.288,0 -0.948,-0.18 -1.716,-0.708l0,1.152c0.54,0.264 1.044,0.492 1.8,0.492c1.464,0 1.848,-1.02 1.848,-1.524c0,-0.72 -0.576,-1.272 -1.344,-1.692c-0.792,-0.444 -1.164,-0.636 -1.164,-0.984c0,-0.204 0.18,-0.48 0.684,-0.48c0.504,0 0.96,0.204 1.56,0.576l0,-1.056Z" style="fill-rule:nonzero;"/><path d="M432.229,373.906l-2.004,1.968l0,0.108l0.936,0l0,2.388c0,0.492 0,1.068 0.264,1.464c0.372,0.528 1.032,0.684 1.404,0.684c0.312,0 0.876,-0.084 1.38,-0.36l0,-0.996c-0.588,0.36 -0.996,0.384 -1.212,0.384c-0.108,0 -0.372,-0.012 -0.576,-0.228c-0.168,-0.192 -0.18,-0.312 -0.192,-0.984l0,-2.352l1.704,0l0,-0.96l-1.704,0l0,-1.116Z" style="fill-rule:nonzero;"/><path d="M439.645,378.838c-0.576,0.42 -1.26,0.66 -1.956,0.66c-1.176,0 -1.704,-0.888 -1.74,-1.692l3.792,0c0,-0.204 0,-0.444 -0.06,-0.804c-0.18,-1.188 -1.032,-2.088 -2.292,-2.088c-1.464,0 -2.52,1.092 -2.52,2.772c0,0.516 0.096,1.344 0.804,2.076c0.648,0.672 1.296,0.756 1.86,0.756c1.128,0 1.74,-0.396 2.112,-0.636l0,-1.044Zm-3.672,-1.668c0.036,-0.24 0.084,-0.564 0.372,-0.876c0.288,-0.324 0.696,-0.456 1.032,-0.456c1.212,0 1.296,1.116 1.308,1.332l-2.712,0Z" style="fill-rule:nonzero;"/><path d="M440.845,375.022l0,5.388l1.068,0l0,-2.82c0,-1.224 0.876,-1.656 1.272,-1.656c0.42,0 0.9,0.396 1.032,0.528l0.564,-0.936c-0.624,-0.6 -1.104,-0.612 -1.26,-0.612c-0.756,0 -1.26,0.804 -1.608,1.344l0,-1.236l-1.068,0Z" style="fill-rule:nonzero;"/><path d="M452.449,372.178l-0.828,0l-3.516,8.232l1.2,0l1.032,-2.412l3.48,0l1.092,2.412l1.2,0l-3.66,-8.232Zm-1.656,4.764l1.224,-2.964l1.32,2.964l-2.544,0Z" style="fill-rule:nonzero;"/><path d="M457.885,372.226l-1.068,0l0,7.884c0.516,0.252 1.404,0.42 2.088,0.42c1.476,0 2.784,-0.972 2.784,-2.868c0,-1.512 -0.876,-2.748 -2.316,-2.748c-0.804,0 -1.308,0.36 -1.488,0.492l0,-3.18Zm0,4.2c0.216,-0.192 0.612,-0.528 1.212,-0.528c0.768,0 1.512,0.6 1.512,1.812c0,1.344 -0.96,1.8 -1.596,1.8c-0.18,0 -0.696,-0.036 -1.128,-0.168l0,-2.916Z" style="fill-rule:nonzero;"/><path d="M463.885,372.226l-1.068,0l0,7.884c0.516,0.252 1.404,0.42 2.088,0.42c1.476,0 2.784,-0.972 2.784,-2.868c0,-1.512 -0.876,-2.748 -2.316,-2.748c-0.804,0 -1.308,0.36 -1.488,0.492l0,-3.18Zm0,4.2c0.216,-0.192 0.612,-0.528 1.212,-0.528c0.768,0 1.512,0.6 1.512,1.812c0,1.344 -0.96,1.8 -1.596,1.8c-0.18,0 -0.696,-0.036 -1.128,-0.168l0,-2.916Z" style="fill-rule:nonzero;"/><path d="M473.365,378.838c-0.576,0.42 -1.26,0.66 -1.956,0.66c-1.176,0 -1.704,-0.888 -1.74,-1.692l3.792,0c0,-0.204 0,-0.444 -0.06,-0.804c-0.18,-1.188 -1.032,-2.088 -2.292,-2.088c-1.464,0 -2.52,1.092 -2.52,2.772c0,0.516 0.096,1.344 0.804,2.076c0.648,0.672 1.296,0.756 1.86,0.756c1.128,0 1.74,-0.396 2.112,-0.636l0,-1.044Zm-3.672,-1.668c0.036,-0.24 0.084,-0.564 0.372,-0.876c0.288,-0.324 0.696,-0.456 1.032,-0.456c1.212,0 1.296,1.116 1.308,1.332l-2.712,0Z" style="fill-rule:nonzero;"/><path d="M479.113,375.022l-1.2,0l-1.392,3.036l-1.452,-3.036l-1.212,0l2.088,4.236l-1.836,3.912l1.188,0l3.816,-8.148Z" style="fill-rule:nonzero;"/></g><g transform="matrix(4.16667,0,0,4.16667,-41.6667,-41.6667)"><path d="M499.088,273.654l-1.116,0l0,6.348l-5.52,-6.348l-0.948,0l0,8.184l1.104,0l0,-6.3l5.472,6.3l1.008,0l0,-8.184Z" style="fill-rule:nonzero;"/><path d="M503.276,276.342c-1.8,0 -2.904,1.284 -2.904,2.796c0,1.536 1.14,2.808 2.868,2.808c1.332,0 2.892,-0.864 2.892,-2.784c0,-1.704 -1.248,-2.82 -2.856,-2.82Zm-0.06,0.96c0.768,0 1.824,0.48 1.824,1.836c0,1.092 -0.72,1.848 -1.776,1.848c-0.792,0 -1.8,-0.48 -1.8,-1.836c0,-1.188 0.792,-1.848 1.752,-1.848Z" style="fill-rule:nonzero;"/><path d="M508.568,275.334l-2.004,1.968l0,0.108l0.936,0l0,2.388c0,0.492 0,1.068 0.264,1.464c0.372,0.528 1.032,0.684 1.404,0.684c0.312,0 0.876,-0.084 1.38,-0.36l0,-0.996c-0.588,0.36 -0.996,0.384 -1.212,0.384c-0.108,0 -0.372,-0.012 -0.576,-0.228c-0.168,-0.192 -0.18,-0.312 -0.192,-0.984l0,-2.352l1.704,0l0,-0.96l-1.704,0l0,-1.116Z" style="fill-rule:nonzero;"/><rect x="511.508" y="273.654" width="1.068" height="8.184" style="fill-rule:nonzero;"/><path d="M518.612,280.266c-0.576,0.42 -1.26,0.66 -1.956,0.66c-1.176,0 -1.704,-0.888 -1.74,-1.692l3.792,0c0,-0.204 0,-0.444 -0.06,-0.804c-0.18,-1.188 -1.032,-2.088 -2.292,-2.088c-1.464,0 -2.52,1.092 -2.52,2.772c0,0.516 0.096,1.344 0.804,2.076c0.648,0.672 1.296,0.756 1.86,0.756c1.128,0 1.74,-0.396 2.112,-0.636l0,-1.044Zm-3.672,-1.668c0.036,-0.24 0.084,-0.564 0.372,-0.876c0.288,-0.324 0.696,-0.456 1.032,-0.456c1.212,0 1.296,1.116 1.308,1.332l-2.712,0Z" style="fill-rule:nonzero;"/><path d="M524.36,276.45l-1.2,0l-1.392,3.036l-1.452,-3.036l-1.212,0l2.088,4.236l-1.836,3.912l1.188,0l3.816,-8.148Z" style="fill-rule:nonzero;"/><path d="M532.028,273.606l-0.828,0l-3.516,8.232l1.2,0l1.032,-2.412l3.48,0l1.092,2.412l1.2,0l-3.66,-8.232Zm-1.656,4.764l1.224,-2.964l1.32,2.964l-2.544,0Z" style="fill-rule:nonzero;"/><path d="M537.464,273.654l-1.068,0l0,7.884c0.516,0.252 1.404,0.42 2.088,0.42c1.476,0 2.784,-0.972 2.784,-2.868c0,-1.512 -0.876,-2.748 -2.316,-2.748c-0.804,0 -1.308,0.36 -1.488,0.492l0,-3.18Zm0,4.2c0.216,-0.192 0.612,-0.528 1.212,-0.528c0.768,0 1.512,0.6 1.512,1.812c0,1.344 -0.96,1.8 -1.596,1.8c-0.18,0 -0.696,-0.036 -1.128,-0.168l0,-2.916Z" style="fill-rule:nonzero;"/><path d="M543.464,273.654l-1.068,0l0,7.884c0.516,0.252 1.404,0.42 2.088,0.42c1.476,0 2.784,-0.972 2.784,-2.868c0,-1.512 -0.876,-2.748 -2.316,-2.748c-0.804,0 -1.308,0.36 -1.488,0.492l0,-3.18Zm0,4.2c0.216,-0.192 0.612,-0.528 1.212,-0.528c0.768,0 1.512,0.6 1.512,1.812c0,1.344 -0.96,1.8 -1.596,1.8c-0.18,0 -0.696,-0.036 -1.128,-0.168l0,-2.916Z" style="fill-rule:nonzero;"/><path d="M552.944,280.266c-0.576,0.42 -1.26,0.66 -1.956,0.66c-1.176,0 -1.704,-0.888 -1.74,-1.692l3.792,0c0,-0.204 0,-0.444 -0.06,-0.804c-0.18,-1.188 -1.032,-2.088 -2.292,-2.088c-1.464,0 -2.52,1.092 -2.52,2.772c0,0.516 0.096,1.344 0.804,2.076c0.648,0.672 1.296,0.756 1.86,0.756c1.128,0 1.74,-0.396 2.112,-0.636l0,-1.044Zm-3.672,-1.668c0.036,-0.24 0.084,-0.564 0.372,-0.876c0.288,-0.324 0.696,-0.456 1.032,-0.456c1.212,0 1.296,1.116 1.308,1.332l-2.712,0Z" style="fill-rule:nonzero;"/><path d="M558.692,276.45l-1.2,0l-1.392,3.036l-1.452,-3.036l-1.212,0l2.088,4.236l-1.836,3.912l1.188,0l3.816,-8.148Z" style="fill-rule:nonzero;"/></g><g transform="matrix(4.16667,0,0,4.16667,-41.6667,-41.6667)"><path d="M446.942,135.961c-0.528,-0.228 -1.608,-0.672 -2.868,-0.672c-2.592,0 -4.428,1.956 -4.428,4.212c0,1.908 1.368,4.188 4.404,4.188c1.044,0 2.028,-0.204 2.976,-0.72l0,-1.284c-0.864,0.564 -1.872,0.912 -2.904,0.912c-2.172,0 -3.252,-1.56 -3.252,-3.084c0,-1.644 1.26,-3.108 3.24,-3.108c0.996,0 1.968,0.324 2.832,0.816l0,-1.26Z" style="fill-rule:nonzero;"/><path d="M449.366,135.397l-1.068,0l0,8.184l1.068,0l0,-3.864c0.468,-0.528 0.84,-0.792 1.356,-0.792c0.324,0 0.66,0.18 0.852,0.492c0.084,0.144 0.192,0.396 0.192,0.828l0,3.336l1.068,0l0,-3.072c0,-0.528 -0.06,-1.044 -0.204,-1.404c-0.228,-0.54 -0.804,-1.02 -1.608,-1.02c-0.636,0 -1.236,0.312 -1.656,0.816l0,-3.504Z" style="fill-rule:nonzero;"/><path d="M458.822,142.009c-0.576,0.42 -1.26,0.66 -1.956,0.66c-1.176,0 -1.704,-0.888 -1.74,-1.692l3.792,0c0,-0.204 0,-0.444 -0.06,-0.804c-0.18,-1.188 -1.032,-2.088 -2.292,-2.088c-1.464,0 -2.52,1.092 -2.52,2.772c0,0.516 0.096,1.344 0.804,2.076c0.648,0.672 1.296,0.756 1.86,0.756c1.128,0 1.74,-0.396 2.112,-0.636l0,-1.044Zm-3.672,-1.668c0.036,-0.24 0.084,-0.564 0.372,-0.876c0.288,-0.324 0.696,-0.456 1.032,-0.456c1.212,0 1.296,1.116 1.308,1.332l-2.712,0Z" style="fill-rule:nonzero;"/><path d="M461.318,137.077l-2.004,1.968l0,0.108l0.936,0l0,2.388c0,0.492 0,1.068 0.264,1.464c0.372,0.528 1.032,0.684 1.404,0.684c0.312,0 0.876,-0.084 1.38,-0.36l0,-0.996c-0.588,0.36 -0.996,0.384 -1.212,0.384c-0.108,0 -0.372,-0.012 -0.576,-0.228c-0.168,-0.192 -0.18,-0.312 -0.192,-0.984l0,-2.352l1.704,0l0,-0.96l-1.704,0l0,-1.116Z" style="fill-rule:nonzero;"/><path d="M472.106,138.193l-1.14,0l-1.404,3.264l-1.368,-3.264l-0.792,0l-1.368,3.264l-1.416,-3.264l-1.14,0l2.4,5.496l0.348,0l1.572,-3.768l1.596,3.768l0.336,0l2.376,-5.496Z" style="fill-rule:nonzero;"/><path d="M475.442,138.085c-1.8,0 -2.904,1.284 -2.904,2.796c0,1.536 1.14,2.808 2.868,2.808c1.332,0 2.892,-0.864 2.892,-2.784c0,-1.704 -1.248,-2.82 -2.856,-2.82Zm-0.06,0.96c0.768,0 1.824,0.48 1.824,1.836c0,1.092 -0.72,1.848 -1.776,1.848c-0.792,0 -1.8,-0.48 -1.8,-1.836c0,-1.188 0.792,-1.848 1.752,-1.848Z" style="fill-rule:nonzero;"/><path d="M484.154,135.397l-1.08,0l0,2.904c-0.216,-0.084 -0.624,-0.216 -1.164,-0.216c-1.356,0 -2.652,0.96 -2.652,2.712c0,1.044 0.504,2.784 2.616,2.784l2.28,0l0,-8.184Zm-1.08,7.284l-0.816,0c-0.564,0 -0.84,-0.024 -1.128,-0.168c-0.408,-0.204 -0.792,-0.672 -0.792,-1.584c0,-1.356 0.84,-1.932 1.74,-1.932c0.504,0 0.792,0.144 0.996,0.252l0,3.432Z" style="fill-rule:nonzero;"/><path d="M490.106,142.009c-0.576,0.42 -1.26,0.66 -1.956,0.66c-1.176,0 -1.704,-0.888 -1.74,-1.692l3.792,0c0,-0.204 0,-0.444 -0.06,-0.804c-0.18,-1.188 -1.032,-2.088 -2.292,-2.088c-1.464,0 -2.52,1.092 -2.52,2.772c0,0.516 0.096,1.344 0.804,2.076c0.648,0.672 1.296,0.756 1.86,0.756c1.128,0 1.74,-0.396 2.112,-0.636l0,-1.044Zm-3.672,-1.668c0.036,-0.24 0.084,-0.564 0.372,-0.876c0.288,-0.324 0.696,-0.456 1.032,-0.456c1.212,0 1.296,1.116 1.308,1.332l-2.712,0Z" style="fill-rule:nonzero;"/><path d="M494.774,135.397l0,8.184l1.176,0l0,-3.552l0.864,0c1.272,0 1.92,-0.168 2.436,-0.66c0.612,-0.588 0.684,-1.248 0.684,-1.656c0,-0.744 -0.276,-1.26 -0.636,-1.62c-0.684,-0.696 -1.44,-0.696 -2.412,-0.696l-2.112,0Zm2.064,1.032c0.84,0 1.164,0 1.524,0.348c0.288,0.264 0.36,0.624 0.36,0.912c0,0.516 -0.216,0.888 -0.54,1.08c-0.348,0.216 -0.828,0.216 -1.296,0.216l-0.936,0l0,-2.556l0.888,0Z" style="fill-rule:nonzero;"/><path d="M500.762,138.193l0,5.388l1.068,0l0,-2.82c0,-1.224 0.876,-1.656 1.272,-1.656c0.42,0 0.9,0.396 1.032,0.528l0.564,-0.936c-0.624,-0.6 -1.104,-0.612 -1.26,-0.612c-0.756,0 -1.26,0.804 -1.608,1.344l0,-1.236l-1.068,0Z" style="fill-rule:nonzero;"/><path d="M505.994,135.925c-0.36,0 -0.624,0.324 -0.624,0.624c0,0.264 0.216,0.636 0.624,0.636c0.348,0 0.636,-0.3 0.636,-0.636c0,-0.336 -0.276,-0.624 -0.636,-0.624Zm0.54,2.268l-1.068,0l0,5.388l1.068,0l0,-5.388Z" style="fill-rule:nonzero;"/><path d="M510.65,138.085c-1.8,0 -2.904,1.284 -2.904,2.796c0,1.536 1.14,2.808 2.868,2.808c1.332,0 2.892,-0.864 2.892,-2.784c0,-1.704 -1.248,-2.82 -2.856,-2.82Zm-0.06,0.96c0.768,0 1.824,0.48 1.824,1.836c0,1.092 -0.72,1.848 -1.776,1.848c-0.792,0 -1.8,-0.48 -1.8,-1.836c0,-1.188 0.792,-1.848 1.752,-1.848Z" style="fill-rule:nonzero;"/><path d="M514.646,138.193l0,5.388l1.068,0l0,-2.82c0,-1.224 0.876,-1.656 1.272,-1.656c0.42,0 0.9,0.396 1.032,0.528l0.564,-0.936c-0.624,-0.6 -1.104,-0.612 -1.26,-0.612c-0.756,0 -1.26,0.804 -1.608,1.344l0,-1.236l-1.068,0Z" style="fill-rule:nonzero;"/><path d="M523.826,138.193l-1.2,0l-1.392,3.036l-1.452,-3.036l-1.212,0l2.088,4.236l-1.836,3.912l1.188,0l3.816,-8.148Z" style="fill-rule:nonzero;"/></g><g transform="matrix(4.16667,0,0,4.16667,-41.6667,-41.6667)"><path d="M338.344,40.73c-0.528,-0.228 -1.608,-0.672 -2.868,-0.672c-2.592,0 -4.428,1.956 -4.428,4.212c0,1.908 1.368,4.188 4.404,4.188c1.044,0 2.028,-0.204 2.976,-0.72l0,-1.284c-0.864,0.564 -1.872,0.912 -2.904,0.912c-2.172,0 -3.252,-1.56 -3.252,-3.084c0,-1.644 1.26,-3.108 3.24,-3.108c0.996,0 1.968,0.324 2.832,0.816l0,-1.26Z" style="fill-rule:nonzero;"/><path d="M340.768,40.166l-1.068,0l0,8.184l1.068,0l0,-3.864c0.468,-0.528 0.84,-0.792 1.356,-0.792c0.324,0 0.66,0.18 0.852,0.492c0.084,0.144 0.192,0.396 0.192,0.828l0,3.336l1.068,0l0,-3.072c0,-0.528 -0.06,-1.044 -0.204,-1.404c-0.228,-0.54 -0.804,-1.02 -1.608,-1.02c-0.636,0 -1.236,0.312 -1.656,0.816l0,-3.504Z" style="fill-rule:nonzero;"/><path d="M349.948,47.39c-0.24,0.18 -0.456,0.288 -0.564,0.288c-0.132,0 -0.204,-0.072 -0.204,-0.276l0,-2.772c0,-1.224 -0.864,-1.776 -1.956,-1.776c-0.78,0 -1.368,0.24 -1.788,0.732l0,1.164c0.516,-0.612 1.116,-0.888 1.704,-0.888c0.648,0 0.972,0.276 0.972,0.948l0,0.288l-0.948,0.336c-0.864,0.312 -1.836,0.636 -1.836,1.704c0,0.696 0.528,1.32 1.32,1.32c0.492,0 0.984,-0.18 1.452,-0.552c0.096,0.384 0.348,0.552 0.816,0.552c0.336,0 0.54,-0.096 1.032,-0.42l0,-0.648Zm-1.836,-0.132c-0.288,0.276 -0.6,0.444 -0.936,0.444c-0.444,0 -0.768,-0.312 -0.768,-0.756c0,-0.636 0.792,-0.948 1.704,-1.26l0,1.572Z" style="fill-rule:nonzero;"/><path d="M354.772,43.226c-0.42,-0.18 -0.864,-0.372 -1.56,-0.372c-1.92,0 -2.664,1.524 -2.664,2.832c0,1.476 0.912,2.772 2.772,2.772c0.768,0 1.332,-0.228 1.572,-0.312l0,-1.056c-0.396,0.18 -0.852,0.36 -1.416,0.36c-1.32,0 -1.848,-0.9 -1.848,-1.8c0,-0.852 0.528,-1.8 1.644,-1.8c0.696,0 1.2,0.324 1.5,0.516l0,-1.14Z" style="fill-rule:nonzero;"/><path d="M358.672,42.854c-1.8,0 -2.904,1.284 -2.904,2.796c0,1.536 1.14,2.808 2.868,2.808c1.332,0 2.892,-0.864 2.892,-2.784c0,-1.704 -1.248,-2.82 -2.856,-2.82Zm-0.06,0.96c0.768,0 1.824,0.48 1.824,1.836c0,1.092 -0.72,1.848 -1.776,1.848c-0.792,0 -1.8,-0.48 -1.8,-1.836c0,-1.188 0.792,-1.848 1.752,-1.848Z" style="fill-rule:nonzero;"/><path d="M362.668,42.962l0,5.388l1.056,0l0,-3.912c0.36,-0.42 0.756,-0.684 1.26,-0.684c0.9,0 1.068,0.648 1.068,1.368l0,3.228l1.056,0l0,-3.912c0.324,-0.396 0.804,-0.672 1.212,-0.672c0.696,0 1.116,0.444 1.116,1.296l0,3.288l1.056,0l0,-3.36c0,-1.368 -0.636,-2.136 -1.8,-2.136c-0.636,0 -1.08,0.276 -1.776,0.972c-0.348,-0.624 -0.936,-0.972 -1.584,-0.972c-0.552,0 -0.984,0.192 -1.608,0.816l0,-0.708l-1.056,0Z" style="fill-rule:nonzero;"/><path d="M372.988,40.166l-1.068,0l0,7.884c0.516,0.252 1.404,0.42 2.088,0.42c1.476,0 2.784,-0.972 2.784,-2.868c0,-1.512 -0.876,-2.748 -2.316,-2.748c-0.804,0 -1.308,0.36 -1.488,0.492l0,-3.18Zm0,4.2c0.216,-0.192 0.612,-0.528 1.212,-0.528c0.768,0 1.512,0.6 1.512,1.812c0,1.344 -0.96,1.8 -1.596,1.8c-0.18,0 -0.696,-0.036 -1.128,-0.168l0,-2.916Z" style="fill-rule:nonzero;"/><path d="M382.468,46.778c-0.576,0.42 -1.26,0.66 -1.956,0.66c-1.176,0 -1.704,-0.888 -1.74,-1.692l3.792,0c0,-0.204 0,-0.444 -0.06,-0.804c-0.18,-1.188 -1.032,-2.088 -2.292,-2.088c-1.464,0 -2.52,1.092 -2.52,2.772c0,0.516 0.096,1.344 0.804,2.076c0.648,0.672 1.296,0.756 1.86,0.756c1.128,0 1.74,-0.396 2.112,-0.636l0,-1.044Zm-3.672,-1.668c0.036,-0.24 0.084,-0.564 0.372,-0.876c0.288,-0.324 0.696,-0.456 1.032,-0.456c1.212,0 1.296,1.116 1.308,1.332l-2.712,0Z" style="fill-rule:nonzero;"/><path d="M387.136,40.166l0,8.184l1.176,0l0,-3.552l0.864,0c1.272,0 1.92,-0.168 2.436,-0.66c0.612,-0.588 0.684,-1.248 0.684,-1.656c0,-0.744 -0.276,-1.26 -0.636,-1.62c-0.684,-0.696 -1.44,-0.696 -2.412,-0.696l-2.112,0Zm2.064,1.032c0.84,0 1.164,0 1.524,0.348c0.288,0.264 0.36,0.624 0.36,0.912c0,0.516 -0.216,0.888 -0.54,1.08c-0.348,0.216 -0.828,0.216 -1.296,0.216l-0.936,0l0,-2.556l0.888,0Z" style="fill-rule:nonzero;"/><path d="M393.124,42.962l0,5.388l1.068,0l0,-2.82c0,-1.224 0.876,-1.656 1.272,-1.656c0.42,0 0.9,0.396 1.032,0.528l0.564,-0.936c-0.624,-0.6 -1.104,-0.612 -1.26,-0.612c-0.756,0 -1.26,0.804 -1.608,1.344l0,-1.236l-1.068,0Z" style="fill-rule:nonzero;"/><path d="M398.356,40.694c-0.36,0 -0.624,0.324 -0.624,0.624c0,0.264 0.216,0.636 0.624,0.636c0.348,0 0.636,-0.3 0.636,-0.636c0,-0.336 -0.276,-0.624 -0.636,-0.624Zm0.54,2.268l-1.068,0l0,5.388l1.068,0l0,-5.388Z" style="fill-rule:nonzero;"/><path d="M403.012,42.854c-1.8,0 -2.904,1.284 -2.904,2.796c0,1.536 1.14,2.808 2.868,2.808c1.332,0 2.892,-0.864 2.892,-2.784c0,-1.704 -1.248,-2.82 -2.856,-2.82Zm-0.06,0.96c0.768,0 1.824,0.48 1.824,1.836c0,1.092 -0.72,1.848 -1.776,1.848c-0.792,0 -1.8,-0.48 -1.8,-1.836c0,-1.188 0.792,-1.848 1.752,-1.848Z" style="fill-rule:nonzero;"/><path d="M407.008,42.962l0,5.388l1.068,0l0,-2.82c0,-1.224 0.876,-1.656 1.272,-1.656c0.42,0 0.9,0.396 1.032,0.528l0.564,-0.936c-0.624,-0.6 -1.104,-0.612 -1.26,-0.612c-0.756,0 -1.26,0.804 -1.608,1.344l0,-1.236l-1.068,0Z" style="fill-rule:nonzero;"/><path d="M416.188,42.962l-1.2,0l-1.392,3.036l-1.452,-3.036l-1.212,0l2.088,4.236l-1.836,3.912l1.188,0l3.816,-8.148Z" style="fill-rule:nonzero;"/></g><g transform="matrix(4.16667,0,0,4.16667,112.05,-27.3184)"><path d="M257.482,291.824c-2.796,0 -4.38,2.052 -4.38,4.224c0,2.28 1.752,4.176 4.32,4.176c2.676,0 4.476,-1.86 4.476,-4.212c0,-2.196 -1.692,-4.188 -4.416,-4.188Zm0.048,1.104c2.136,0 3.168,1.716 3.168,3.072c0,0.708 -0.3,1.596 -0.816,2.16c-0.564,0.612 -1.512,0.972 -2.388,0.972c-1.716,0 -3.18,-1.224 -3.18,-3.084c0,-1.368 0.924,-3.12 3.216,-3.12Z" style="fill-rule:nonzero;"/><path d="M266.314,295.064c-0.252,-0.132 -0.828,-0.444 -1.632,-0.444c-1.032,0 -1.716,0.612 -1.716,1.404c0,0.9 0.78,1.38 1.668,1.872c0.504,0.276 0.828,0.456 0.828,0.84c0,0.36 -0.48,0.552 -0.816,0.552c-0.288,0 -0.948,-0.18 -1.716,-0.708l0,1.152c0.54,0.264 1.044,0.492 1.8,0.492c1.464,0 1.848,-1.02 1.848,-1.524c0,-0.72 -0.576,-1.272 -1.344,-1.692c-0.792,-0.444 -1.164,-0.636 -1.164,-0.984c0,-0.204 0.18,-0.48 0.684,-0.48c0.504,0 0.96,0.204 1.56,0.576l0,-1.056Z" style="fill-rule:nonzero;"/><path d="M272.314,298.544c-0.576,0.42 -1.26,0.66 -1.956,0.66c-1.176,0 -1.704,-0.888 -1.74,-1.692l3.792,0c0,-0.204 0,-0.444 -0.06,-0.804c-0.18,-1.188 -1.032,-2.088 -2.292,-2.088c-1.464,0 -2.52,1.092 -2.52,2.772c0,0.516 0.096,1.344 0.804,2.076c0.648,0.672 1.296,0.756 1.86,0.756c1.128,0 1.74,-0.396 2.112,-0.636l0,-1.044Zm-3.672,-1.668c0.036,-0.24 0.084,-0.564 0.372,-0.876c0.288,-0.324 0.696,-0.456 1.032,-0.456c1.212,0 1.296,1.116 1.308,1.332l-2.712,0Z" style="fill-rule:nonzero;"/><path d="M273.538,294.728l0,5.388l1.092,0l0,-3.852c0.324,-0.468 0.78,-0.756 1.272,-0.756c0.36,0 0.6,0.108 0.804,0.336c0.288,0.324 0.288,0.624 0.288,1.2l0,3.072l1.08,0l0,-3.072c0,-0.984 -0.132,-1.296 -0.3,-1.56c-0.444,-0.744 -1.188,-0.864 -1.524,-0.864c-0.504,0 -1.14,0.252 -1.62,0.792l0,-0.684l-1.092,0Z" style="fill-rule:nonzero;"/><path d="M284.062,298.544c-0.576,0.42 -1.26,0.66 -1.956,0.66c-1.176,0 -1.704,-0.888 -1.74,-1.692l3.792,0c0,-0.204 0,-0.444 -0.06,-0.804c-0.18,-1.188 -1.032,-2.088 -2.292,-2.088c-1.464,0 -2.52,1.092 -2.52,2.772c0,0.516 0.096,1.344 0.804,2.076c0.648,0.672 1.296,0.756 1.86,0.756c1.128,0 1.74,-0.396 2.112,-0.636l0,-1.044Zm-3.672,-1.668c0.036,-0.24 0.084,-0.564 0.372,-0.876c0.288,-0.324 0.696,-0.456 1.032,-0.456c1.212,0 1.296,1.116 1.308,1.332l-2.712,0Z" style="fill-rule:nonzero;"/><path d="M289.81,294.728l-1.2,0l-1.392,3.036l-1.452,-3.036l-1.212,0l2.088,4.236l-1.836,3.912l1.188,0l3.816,-8.148Z" style="fill-rule:nonzero;"/><path d="M263.146,303.884l-0.828,0l-3.516,8.232l1.2,0l1.032,-2.412l3.48,0l1.092,2.412l1.2,0l-3.66,-8.232Zm-1.656,4.764l1.224,-2.964l1.32,2.964l-2.544,0Z" style="fill-rule:nonzero;"/><path d="M268.582,303.932l-1.068,0l0,7.884c0.516,0.252 1.404,0.42 2.088,0.42c1.476,0 2.784,-0.972 2.784,-2.868c0,-1.512 -0.876,-2.748 -2.316,-2.748c-0.804,0 -1.308,0.36 -1.488,0.492l0,-3.18Zm0,4.2c0.216,-0.192 0.612,-0.528 1.212,-0.528c0.768,0 1.512,0.6 1.512,1.812c0,1.344 -0.96,1.8 -1.596,1.8c-0.18,0 -0.696,-0.036 -1.128,-0.168l0,-2.916Z" style="fill-rule:nonzero;"/><path d="M274.582,303.932l-1.068,0l0,7.884c0.516,0.252 1.404,0.42 2.088,0.42c1.476,0 2.784,-0.972 2.784,-2.868c0,-1.512 -0.876,-2.748 -2.316,-2.748c-0.804,0 -1.308,0.36 -1.488,0.492l0,-3.18Zm0,4.2c0.216,-0.192 0.612,-0.528 1.212,-0.528c0.768,0 1.512,0.6 1.512,1.812c0,1.344 -0.96,1.8 -1.596,1.8c-0.18,0 -0.696,-0.036 -1.128,-0.168l0,-2.916Z" style="fill-rule:nonzero;"/><path d="M284.062,310.544c-0.576,0.42 -1.26,0.66 -1.956,0.66c-1.176,0 -1.704,-0.888 -1.74,-1.692l3.792,0c0,-0.204 0,-0.444 -0.06,-0.804c-0.18,-1.188 -1.032,-2.088 -2.292,-2.088c-1.464,0 -2.52,1.092 -2.52,2.772c0,0.516 0.096,1.344 0.804,2.076c0.648,0.672 1.296,0.756 1.86,0.756c1.128,0 1.74,-0.396 2.112,-0.636l0,-1.044Zm-3.672,-1.668c0.036,-0.24 0.084,-0.564 0.372,-0.876c0.288,-0.324 0.696,-0.456 1.032,-0.456c1.212,0 1.296,1.116 1.308,1.332l-2.712,0Z" style="fill-rule:nonzero;"/><path d="M289.81,306.728l-1.2,0l-1.392,3.036l-1.452,-3.036l-1.212,0l2.088,4.236l-1.836,3.912l1.188,0l3.816,-8.148Z" style="fill-rule:nonzero;"/></g><rect x="0" y="0" width="3100" height="2037.5" style="fill:none;stroke:#999;stroke-width:4.17px;"/><path d="M1347.09,1149.07c0,-8.05 -7.1,-12.75 -13.8,-12.75c-7.9,0 -13.7,6 -13.7,12.8c0,7.05 6.05,12.55 13.75,12.55c8,0 13.75,-5.9 13.75,-12.6Zm-6.95,0.1c0,3.4 -2.6,6.7 -6.7,6.7c-3.8,0 -6.9,-2.85 -6.9,-6.8c0,-4.2 3.45,-6.95 6.9,-6.95c2.65,0 6.7,1.9 6.7,7.05Z" style="fill-rule:nonzero;"/><path d="M1357.84,1148.52l-10.55,12.85l8.05,0l6.55,-7.95l6.55,7.95l8.05,0l-10.6,-12.85l9.8,-11.9l-8.05,0l-5.75,7l-5.8,-7l-8.05,0l9.8,11.9Z" style="fill-rule:nonzero;"/><path d="M1396.64,1136.62l-16.9,0l0,24.75l6.65,0l0,-9.85l10.25,0l0,-5.3l-10.25,0l0,-4.3l10.25,0l0,-5.3Z" style="fill-rule:nonzero;"/><path d="M1428.54,1149.07c0,-8.05 -7.1,-12.75 -13.8,-12.75c-7.9,0 -13.7,6 -13.7,12.8c0,7.05 6.05,12.55 13.75,12.55c8,0 13.75,-5.9 13.75,-12.6Zm-6.95,0.1c0,3.4 -2.6,6.7 -6.7,6.7c-3.8,0 -6.9,-2.85 -6.9,-6.8c0,-4.2 3.45,-6.95 6.9,-6.95c2.65,0 6.7,1.9 6.7,7.05Z" style="fill-rule:nonzero;"/><path d="M1433.54,1136.62l0,24.75l6.65,0l0,-9.3l1.7,0c2.65,0 3.3,1.85 5.85,9.3l7.35,0c-0.55,-1.15 -1.3,-2.65 -2.35,-5.2c-1.5,-3.7 -1.85,-4.55 -3.35,-5.9c2.4,-1.35 3.75,-3.7 3.75,-6.4c0,-1.85 -0.8,-3.7 -2.15,-5c-1.9,-1.8 -4.2,-2.25 -9.4,-2.25l-8.05,0Zm8.9,5c1.15,0 3.75,0 3.75,2.75c0,2.7 -2.65,2.7 -3.9,2.7l-2.1,0l0,-5.45l2.25,0Z" style="fill-rule:nonzero;"/><path d="M1458.34,1161.37l9.85,0c2.35,0 5.7,-0.3 8.3,-1.75c4.35,-2.5 5.9,-6.8 5.9,-10.55c0,-3.35 -1.3,-7.1 -4.3,-9.5c-2.35,-1.9 -5.25,-2.95 -9.85,-2.95l-9.9,0l0,24.75Zm6.65,-19.35l3.05,0c1.9,0 3.4,0.15 4.85,1.3c1.3,1 2.6,2.8 2.6,5.5c0,2.3 -1,4.6 -2.85,5.85c-0.9,0.65 -2.9,1.3 -4.65,1.3l-3,0l0,-13.95Z" style="fill-rule:nonzero;"/></svg>